<svg id="kity_svg_6" xmlns="http://www.w3.org/2000/svg" xmlns:xlink="http://www.w3.org/1999/xlink" version="1.1" width="1727" height="1444" style="background: rgb(251, 251, 251); visibility: visible;" viewBox="0 0 1727 1444"><defs id="kity_defs_7"><linearGradient id="kity_linearGradient_17" x1="0" y1="0" x2="0" y2="1"><stop id="kity_stop_18" offset="0" stop-color="rgb(255, 255, 255)"></stop><stop id="kity_stop_19" offset="1" stop-color="rgb(204, 204, 204)"></stop></linearGradient><marker id="kity_marker_2" orient="auto" refX="6" refY="0" viewBox="-7 -7 14 14" markerWidth="7" markerHeight="7" markerUnits="userSpaceOnUse"><path id="kity_path_3" fill="rgb(115, 161, 191)" stroke="none" d="M6,0A6,6,0,1,1,-6,0A6,6,0,1,1,6,0"></path></marker></defs><g id="kity_g_8"><g id="minder1" text-rendering="optimize-speed"><g id="minder_connect_group1"><path id="kity_path_31" fill="none" stroke="rgb(115, 161, 191)" stroke-width="1" d="M100.5,562.5A198,334.5,0,0,1,298.5,228"></path><path id="kity_path_33" fill="none" stroke="rgb(115, 161, 191)" stroke-width="1" d="M656.5,228.5C676.5,228,676.5,139.5,696.5,139.5"></path><path id="kity_path_35" fill="none" stroke="rgb(115, 161, 191)" stroke-width="1" d="M656.5,228.5C676.5,228,676.5,362.5,696.5,362.5"></path><path id="kity_path_37" fill="none" stroke="rgb(115, 161, 191)" stroke-width="1" d="M100.5,562.5A198,342,0,0,0,298.5,904.5"></path><path id="kity_path_39" fill="none" stroke="rgb(115, 161, 191)" stroke-width="1" d="M393.5,904.5C413.5,904.5,413.5,659.5,433.5,659.5"></path><path id="kity_path_41" fill="none" stroke="rgb(115, 161, 191)" stroke-width="1" d="M558.5,659.5C578.5,659.5,578.5,659.5,598.5,659.5"></path><path id="kity_path_43" fill="none" stroke="rgb(115, 161, 191)" stroke-width="1" d="M762.5,659.5C782.5,659.5,782.5,541.5,802.5,541.5"></path><path id="kity_path_45" fill="none" stroke="rgb(115, 161, 191)" stroke-width="1" d="M1046.5,541.5C1066.5,541.5,1066.5,541.5,1086.5,541.5"></path><path id="kity_path_47" fill="none" stroke="rgb(115, 161, 191)" stroke-width="1" d="M762.5,659.5C782.5,659.5,782.5,773.5,802.5,773.5"></path><path id="kity_path_49" fill="none" stroke="rgb(115, 161, 191)" stroke-width="1" d="M1041.5,773.5C1061.5,773.5,1061.5,773.5,1081.5,773.5"></path><path id="kity_path_51" fill="none" stroke="rgb(115, 161, 191)" stroke-width="1" d="M393.5,904.5C413.5,904.5,413.5,1150.5,433.5,1150.5"></path><path id="kity_path_53" fill="none" stroke="rgb(115, 161, 191)" stroke-width="1" d="M526.5,1150.5C546.5,1150.5,546.5,1022.5,566.5,1022.5"></path><path id="kity_path_55" fill="none" stroke="rgb(115, 161, 191)" stroke-width="1" d="M787.5,1022.5C807.5,1022.5,807.5,960.5,827.5,960.5"></path><path id="kity_path_57" fill="none" stroke="rgb(115, 161, 191)" stroke-width="1" d="M787.5,1022.5C807.5,1022.5,807.5,1057.5,827.5,1057.5"></path><path id="kity_path_59" fill="none" stroke="rgb(115, 161, 191)" stroke-width="1" d="M526.5,1150.5C546.5,1150.5,546.5,1279.5,566.5,1279.5"></path><path id="kity_path_61" fill="none" stroke="rgb(115, 161, 191)" stroke-width="1" d="M910.5,1279.5C930.5,1279.5,930.5,1190.5,950.5,1190.5"></path><path id="kity_path_63" fill="none" stroke="rgb(115, 161, 191)" stroke-width="1" d="M910.5,1279.5C930.5,1279.5,930.5,1350.5,950.5,1350.5"></path></g><g id="minder_node1"><path id="node_outline1" fill="rgb(115, 161, 191)" stroke="rgb(115, 161, 191)" d="M25.5,530.5h150a5,5,0,0,1,5,5v54a5,5,0,0,1,-5,5h-150a5,5,0,0,1,-5,-5v-54a5,5,0,0,1,5,-5z" stroke-width="3"></path><g id="node_text1" fill="white"><text id="kity_text_22" text-rendering="inherit" font-size="16" dy=".8em" y="542.5" x="44.5">展示医院列表时</text><text id="kity_text_157" text-rendering="inherit" font-size="16" dy=".8em" y="566.5" x="44.5">展示上架商品数</text></g></g><g id="kity_g_12"><path id="kity_path_13" fill="none" stroke="none" d="M44.5,562.5h0v0h0z"></path></g><g id="kity_g_14"><path id="kity_path_15" fill="none" stroke="none" d="M44.5,562.5h0v0h0z"></path><path id="kity_path_16" fill="none" stroke="none"></path></g><g id="minder_node2"><g id="node_expander3" style="cursor: pointer;"><path id="kity_path_212" fill="white" stroke="gray" d="M299.5,228A6,6,0,1,1,287.5,228A6,6,0,1,1,299.5,228"></path><path id="kity_path_213" fill="none" stroke="gray" d="M289,228L298,228"></path></g><path id="node_outline4" fill="rgb(238, 243, 246)" stroke="rgb(115, 161, 191)" d="M303.5,204.5h350a3,3,0,0,1,3,3v41a3,3,0,0,1,-3,3h-350a3,3,0,0,1,-3,-3v-41a3,3,0,0,1,3,-3z" stroke-width="1"></path><g id="node_text4" fill="black"><text id="kity_text_88" text-rendering="inherit" font-size="14" dy=".8em" y="210" x="345.5">添加医院对应商品统计表(hosp_product_stats</text><text id="kity_text_89" text-rendering="inherit" font-size="14" dy=".8em" y="231" x="345.5">对应更新触发器(将更新数据同步到同步表)</text></g><g id="node_priority1"><path id="kity_path_160" fill="#840023" stroke="none" d="M321,231c0,3.866,3.134,7,7,7h6c3.866,0,7,-3.134,7,-7V225H321V231z"></path><path id="kity_path_161" fill="#FF1200" stroke="none" d="M341,228c0,3.866,-3.134,7,-7,7H328c-3.866,0,-7,-3.134,-7,-7V225c0,-3.866,3.134,-7,7,-7h6c3.866,0,7,3.134,7,7V228z" opacity="0.8"></path><text id="kity_text_162" text-rendering="geometricPrecision" x="330" y="227.5" text-anchor="middle" font-style="italic" font-size="12" fill="white" dy="4">1</text></g></g><g id="minder_node3"><g id="node_expander1" style="cursor: pointer;" display="none"><path id="kity_path_206" fill="white" stroke="gray" d="M696.5,139.5A6,6,0,1,1,684.5,139.5A6,6,0,1,1,696.5,139.5"></path><path id="kity_path_207" fill="none" stroke="gray"></path></g><path id="node_outline2" fill="none" stroke="none" d="M701.5,20.5h334a5,5,0,0,1,5,5v228a5,5,0,0,1,-5,5h-334a5,5,0,0,1,-5,-5v-228a5,5,0,0,1,5,-5z" stroke-width="3"></path><g id="node_text2" fill="black"><text id="kity_text_65" text-rendering="inherit" font-size="12" dy=".8em" y="25.5" x="706.5">create table hosp_product_stats</text><text id="kity_text_66" text-rendering="inherit" font-size="12" dy=".8em" y="43.5" x="706.5">(</text><text id="kity_text_67" text-rendering="inherit" font-size="12" dy=".8em" y="61.5" x="706.5">  id                          bigint                             not null</text><text id="kity_text_68" text-rendering="inherit" font-size="12" dy=".8em" y="79.5" x="706.5">  comment '医院id'</text><text id="kity_text_69" text-rendering="inherit" font-size="12" dy=".8em" y="97.5" x="706.5">	primary key,</text><text id="kity_text_70" text-rendering="inherit" font-size="12" dy=".8em" y="115.5" x="706.5">quantity_on_shelves int default 0</text><text id="kity_text_71" text-rendering="inherit" font-size="12" dy=".8em" y="133.5" x="706.5">  comment '上架商品数',</text><text id="kity_text_72" text-rendering="inherit" font-size="12" dy=".8em" y="151.5" x="706.5">  create_time                 datetime default CURRENT_TIMESTAMP null,</text><text id="kity_text_73" text-rendering="inherit" font-size="12" dy=".8em" y="169.5" x="706.5">  update_time                 datetime default CURRENT_TIMESTAMP null</text><text id="kity_text_74" text-rendering="inherit" font-size="12" dy=".8em" y="187.5" x="706.5">  on update CURRENT_TIMESTAMP,</text><text id="kity_text_75" text-rendering="inherit" font-size="12" dy=".8em" y="205.5" x="706.5">  is_delete                   tinyint default '0'                null</text><text id="kity_text_76" text-rendering="inherit" font-size="12" dy=".8em" y="223.5" x="706.5">)</text><text id="kity_text_77" text-rendering="inherit" font-size="12" dy=".8em" y="241.5" x="706.5">  comment '医院商品统计表';</text></g></g><g id="minder_node4"><g id="node_expander2" style="cursor: pointer;" display="none"><path id="kity_path_209" fill="white" stroke="gray" d="M696.5,362.5A6,6,0,1,1,684.5,362.5A6,6,0,1,1,696.5,362.5"></path><path id="kity_path_210" fill="none" stroke="gray"></path></g><path id="node_outline3" fill="none" stroke="none" d="M701.5,288.5h506a5,5,0,0,1,5,5v138a5,5,0,0,1,-5,5h-506a5,5,0,0,1,-5,-5v-138a5,5,0,0,1,5,-5z" stroke-width="3"></path><g id="node_text3" fill="black"><text id="kity_text_79" text-rendering="inherit" font-size="12" dy=".8em" y="293.5" x="706.5">create trigger t_hosp_product_stats_update</text><text id="kity_text_80" text-rendering="inherit" font-size="12" dy=".8em" y="311.5" x="706.5">  after UPDATE</text><text id="kity_text_81" text-rendering="inherit" font-size="12" dy=".8em" y="329.5" x="706.5">  on hosp_product_stats</text><text id="kity_text_82" text-rendering="inherit" font-size="12" dy=".8em" y="347.5" x="706.5">  for each row</text><text id="kity_text_83" text-rendering="inherit" font-size="12" dy=".8em" y="365.5" x="706.5">  BEGIN</text><text id="kity_text_84" text-rendering="inherit" font-size="12" dy=".8em" y="383.5" x="706.5">	INSERT INTO sync_table(sync_id,type,sharding) VALUES (new.id,27,FLOOR(RAND() * 6));</text><text id="kity_text_85" text-rendering="inherit" font-size="12" dy=".8em" y="401.5" x="706.5">  END;</text><text id="kity_text_86" text-rendering="inherit" font-size="12" dy=".8em" y="419.5" x="706.5"> </text></g></g><g id="minder_node5"><g id="node_expander17" style="cursor: pointer;"><path id="kity_path_254" fill="white" stroke="gray" d="M299.5,904.5A6,6,0,1,1,287.5,904.5A6,6,0,1,1,299.5,904.5"></path><path id="kity_path_255" fill="none" stroke="gray" d="M289,904.5L298,904.5"></path></g><path id="node_outline18" fill="rgb(238, 243, 246)" stroke="rgb(115, 161, 191)" d="M303.5,888.5h87a3,3,0,0,1,3,3v26a3,3,0,0,1,-3,3h-87a3,3,0,0,1,-3,-3v-26a3,3,0,0,1,3,-3z" stroke-width="1"></path><g id="node_text18" fill="black"><text id="kity_text_156" text-rendering="inherit" font-size="14" dy=".8em" y="897.5" x="345.5">统计</text></g><g id="node_priority6"><path id="kity_path_185" fill="#01467F" stroke="none" d="M321,908c0,3.866,3.134,7,7,7h6c3.866,0,7,-3.134,7,-7V902H321V908z"></path><path id="kity_path_186" fill="#0074FF" stroke="none" d="M341,905c0,3.866,-3.134,7,-7,7H328c-3.866,0,-7,-3.134,-7,-7V902c0,-3.866,3.134,-7,7,-7h6c3.866,0,7,3.134,7,7V905z" opacity="0.8"></path><text id="kity_text_187" text-rendering="geometricPrecision" x="330" y="904.5" text-anchor="middle" font-style="italic" font-size="12" fill="white" dy="4">2</text></g></g><g id="minder_node6"><g id="node_expander9" style="cursor: pointer;"><path id="kity_path_230" fill="white" stroke="gray" d="M433.5,659.5A6,6,0,1,1,421.5,659.5A6,6,0,1,1,433.5,659.5"></path><path id="kity_path_231" fill="none" stroke="gray" d="M423,659.5L432,659.5"></path></g><path id="node_outline10" fill="none" stroke="none" d="M438.5,648.5h115a5,5,0,0,1,5,5v12a5,5,0,0,1,-5,5h-115a5,5,0,0,1,-5,-5v-12a5,5,0,0,1,5,-5z" stroke-width="3"></path><g id="node_text10" fill="black"><text id="kity_text_123" text-rendering="inherit" font-size="12" dy=".8em" y="653.5" x="443.5">触发器实现(基于一)</text></g></g><g id="minder_node7"><g id="node_expander8" style="cursor: pointer;"><path id="kity_path_227" fill="white" stroke="gray" d="M598.5,659.5A6,6,0,1,1,586.5,659.5A6,6,0,1,1,598.5,659.5"></path><path id="kity_path_228" fill="none" stroke="gray" d="M588,659.5L597,659.5"></path></g><path id="node_outline9" fill="none" stroke="none" d="M603.5,639.5h154a5,5,0,0,1,5,5v30a5,5,0,0,1,-5,5h-154a5,5,0,0,1,-5,-5v-30a5,5,0,0,1,5,-5z" stroke-width="3"></path><g id="node_text9" fill="black"><text id="kity_text_120" text-rendering="inherit" font-size="12" dy=".8em" y="644.5" x="608.5">在商品表中添加触发器,</text><text id="kity_text_121" text-rendering="inherit" font-size="12" dy=".8em" y="662.5" x="608.5">更新后触发(after UPDATE)</text></g></g><g id="minder_node8"><g id="node_expander5" style="cursor: pointer;"><path id="kity_path_218" fill="white" stroke="gray" d="M802.5,541.5A6,6,0,1,1,790.5,541.5A6,6,0,1,1,802.5,541.5"></path><path id="kity_path_219" fill="none" stroke="gray" d="M792,541.5L801,541.5"></path></g><path id="node_outline6" fill="none" stroke="none" d="M807.5,526.5h234a5,5,0,0,1,5,5v20a5,5,0,0,1,-5,5h-234a5,5,0,0,1,-5,-5v-20a5,5,0,0,1,5,-5z" stroke-width="3"></path><g id="node_text6" fill="black"><text id="kity_text_99" text-rendering="inherit" font-size="12" dy=".8em" y="535.5" x="837.5">新增医院时,添加触发器(after INSERT)</text></g><g id="node_priority2"><path id="kity_path_165" fill="#840023" stroke="none" d="M813,545c0,3.866,3.134,7,7,7h6c3.866,0,7,-3.134,7,-7V539H813V545z"></path><path id="kity_path_166" fill="#FF1200" stroke="none" d="M833,542c0,3.866,-3.134,7,-7,7H820c-3.866,0,-7,-3.134,-7,-7V539c0,-3.866,3.134,-7,7,-7h6c3.866,0,7,3.134,7,7V542z" opacity="0.8"></path><text id="kity_text_167" text-rendering="geometricPrecision" x="822" y="541.5" text-anchor="middle" font-style="italic" font-size="12" fill="white" dy="4">1</text></g></g><g id="minder_node9"><g id="node_expander4" style="cursor: pointer;" display="none"><path id="kity_path_215" fill="white" stroke="gray" d="M1086.5,541.5A6,6,0,1,1,1074.5,541.5A6,6,0,1,1,1086.5,541.5"></path><path id="kity_path_216" fill="none" stroke="gray"></path></g><path id="node_outline5" fill="none" stroke="none" d="M1091.5,476.5h472a5,5,0,0,1,5,5v120a5,5,0,0,1,-5,5h-472a5,5,0,0,1,-5,-5v-120a5,5,0,0,1,5,-5z" stroke-width="3"></path><g id="node_text5" fill="black"><text id="kity_text_91" text-rendering="inherit" font-size="12" dy=".8em" y="481.5" x="1096.5">create trigger t_hosp_insert</text><text id="kity_text_92" text-rendering="inherit" font-size="12" dy=".8em" y="499.5" x="1096.5">  after INSERT</text><text id="kity_text_93" text-rendering="inherit" font-size="12" dy=".8em" y="517.5" x="1096.5">  on hosp</text><text id="kity_text_94" text-rendering="inherit" font-size="12" dy=".8em" y="535.5" x="1096.5">  for each row</text><text id="kity_text_95" text-rendering="inherit" font-size="12" dy=".8em" y="553.5" x="1096.5">  BEGIN</text><text id="kity_text_96" text-rendering="inherit" font-size="12" dy=".8em" y="571.5" x="1096.5">	INSERT INTO 库名.&#xa0;hosp_product_stats(id,quantity_on_shelves) VALUES (new.id,0);</text><text id="kity_text_97" text-rendering="inherit" font-size="12" dy=".8em" y="589.5" x="1096.5">  END;</text></g></g><g id="minder_node10"><g id="node_expander7" style="cursor: pointer;"><path id="kity_path_224" fill="white" stroke="gray" d="M802.5,773.5A6,6,0,1,1,790.5,773.5A6,6,0,1,1,802.5,773.5"></path><path id="kity_path_225" fill="none" stroke="gray" d="M792,773.5L801,773.5"></path></g><path id="node_outline8" fill="none" stroke="none" d="M807.5,753.5h229a5,5,0,0,1,5,5v30a5,5,0,0,1,-5,5h-229a5,5,0,0,1,-5,-5v-30a5,5,0,0,1,5,-5z" stroke-width="3"></path><g id="node_text8" fill="black"><text id="kity_text_117" text-rendering="inherit" font-size="12" dy=".8em" y="758.5" x="837.5">当 (status=已上架 或 status=已下架)</text><text id="kity_text_118" text-rendering="inherit" font-size="12" dy=".8em" y="776.5" x="837.5">执行更新统计表,update</text></g><g id="node_priority3"><path id="kity_path_170" fill="#01467F" stroke="none" d="M813,777c0,3.866,3.134,7,7,7h6c3.866,0,7,-3.134,7,-7V771H813V777z"></path><path id="kity_path_171" fill="#0074FF" stroke="none" d="M833,774c0,3.866,-3.134,7,-7,7H820c-3.866,0,-7,-3.134,-7,-7V771c0,-3.866,3.134,-7,7,-7h6c3.866,0,7,3.134,7,7V774z" opacity="0.8"></path><text id="kity_text_172" text-rendering="geometricPrecision" x="822" y="773.5" text-anchor="middle" font-style="italic" font-size="12" fill="white" dy="4">2</text></g></g><g id="minder_node11"><g id="node_expander6" style="cursor: pointer;" display="none"><path id="kity_path_221" fill="white" stroke="gray" d="M1081.5,773.5A6,6,0,1,1,1069.5,773.5A6,6,0,1,1,1081.5,773.5"></path><path id="kity_path_222" fill="none" stroke="gray"></path></g><path id="node_outline7" fill="none" stroke="none" d="M1086.5,636.5h616a5,5,0,0,1,5,5v264a5,5,0,0,1,-5,5h-616a5,5,0,0,1,-5,-5v-264a5,5,0,0,1,5,-5z" stroke-width="3"></path><g id="node_text7" fill="black"><text id="kity_text_101" text-rendering="inherit" font-size="12" dy=".8em" y="641.5" x="1091.5">create trigger t_product_udpate</text><text id="kity_text_102" text-rendering="inherit" font-size="12" dy=".8em" y="659.5" x="1091.5">  after INSERT</text><text id="kity_text_103" text-rendering="inherit" font-size="12" dy=".8em" y="677.5" x="1091.5">  on product</text><text id="kity_text_104" text-rendering="inherit" font-size="12" dy=".8em" y="695.5" x="1091.5">  for each row</text><text id="kity_text_105" text-rendering="inherit" font-size="12" dy=".8em" y="713.5" x="1091.5">  BEGIN</text><text id="kity_text_106" text-rendering="inherit" font-size="12" dy=".8em" y="731.5" x="1091.5">	INSERT INTO&#xa0;库名.&#xa0;hosp_product_stats(id,quantity_on_shelves) VALUES (new.id,0);</text><text id="kity_text_107" text-rendering="inherit" font-size="12" dy=".8em" y="749.5" x="1091.5">	if (new.status = 已上架)</text><text id="kity_text_108" text-rendering="inherit" font-size="12" dy=".8em" y="767.5" x="1091.5">	then</text><text id="kity_text_109" text-rendering="inherit" font-size="12" dy=".8em" y="785.5" x="1091.5">	  update&#xa0;&#xa0;库名.&#xa0;hosp_product_stats&#xa0;set quantity_on_shelves=quantity_on_shelves+1 where id=new.hosp_id;</text><text id="kity_text_110" text-rendering="inherit" font-size="12" dy=".8em" y="803.5" x="1091.5">	end if;</text><text id="kity_text_111" text-rendering="inherit" font-size="12" dy=".8em" y="821.5" x="1091.5">	if (new.status = 已下架)</text><text id="kity_text_112" text-rendering="inherit" font-size="12" dy=".8em" y="839.5" x="1091.5">	then</text><text id="kity_text_113" text-rendering="inherit" font-size="12" dy=".8em" y="857.5" x="1091.5">	  update&#xa0;&#xa0;库名.&#xa0;hosp_product_stats&#xa0;set quantity_on_shelves=quantity_on_shelves-1 where id=new.hosp_id;</text><text id="kity_text_114" text-rendering="inherit" font-size="12" dy=".8em" y="875.5" x="1091.5">	end if;</text><text id="kity_text_115" text-rendering="inherit" font-size="12" dy=".8em" y="893.5" x="1091.5">  END;</text></g></g><g id="minder_node12"><g id="node_expander16" style="cursor: pointer;"><path id="kity_path_251" fill="white" stroke="gray" d="M433.5,1150.5A6,6,0,1,1,421.5,1150.5A6,6,0,1,1,433.5,1150.5"></path><path id="kity_path_252" fill="none" stroke="gray" d="M423,1150.5L432,1150.5"></path></g><path id="node_outline17" fill="none" stroke="none" d="M438.5,1139.5h83a5,5,0,0,1,5,5v12a5,5,0,0,1,-5,5h-83a5,5,0,0,1,-5,-5v-12a5,5,0,0,1,5,-5z" stroke-width="3"></path><g id="node_text17" fill="black"><text id="kity_text_154" text-rendering="inherit" font-size="12" dy=".8em" y="1144.5" x="443.5">java代码实现</text></g></g><g id="minder_node13"><g id="node_expander12" style="cursor: pointer;"><path id="kity_path_239" fill="white" stroke="gray" d="M566.5,1022.5A6,6,0,1,1,554.5,1022.5A6,6,0,1,1,566.5,1022.5"></path><path id="kity_path_240" fill="none" stroke="gray" d="M556,1022.5L565,1022.5"></path></g><path id="node_outline13" fill="none" stroke="none" d="M571.5,1011.5h211a5,5,0,0,1,5,5v12a5,5,0,0,1,-5,5h-211a5,5,0,0,1,-5,-5v-12a5,5,0,0,1,5,-5z" stroke-width="3"></path><g id="node_text13" fill="black"><text id="kity_text_134" text-rendering="inherit" font-size="12" dy=".8em" y="1016.5" x="576.5">代码定时统计商品表(频繁统计商品表)</text></g></g><g id="minder_node14"><g id="node_expander10" style="cursor: pointer;" display="none"><path id="kity_path_233" fill="white" stroke="gray" d="M827.5,960.5A6,6,0,1,1,815.5,960.5A6,6,0,1,1,827.5,960.5"></path><path id="kity_path_234" fill="none" stroke="gray"></path></g><path id="node_outline11" fill="none" stroke="none" d="M832.5,940.5h618a5,5,0,0,1,5,5v30a5,5,0,0,1,-5,5h-618a5,5,0,0,1,-5,-5v-30a5,5,0,0,1,5,-5z" stroke-width="3"></path><g id="node_text11" fill="black"><text id="kity_text_125" text-rendering="inherit" font-size="12" dy=".8em" y="945.5" x="862.5">根据医院ID分组</text><text id="kity_text_126" text-rendering="inherit" font-size="12" dy=".8em" y="963.5" x="862.5">sql: SELECT hosp_id,count(*) FROM product WHERE is_delete = 0 AND status = 已上架 group by hosp_id</text></g><g id="node_priority4"><path id="kity_path_175" fill="#840023" stroke="none" d="M838,964c0,3.866,3.134,7,7,7h6c3.866,0,7,-3.134,7,-7V958H838V964z"></path><path id="kity_path_176" fill="#FF1200" stroke="none" d="M858,961c0,3.866,-3.134,7,-7,7H845c-3.866,0,-7,-3.134,-7,-7V958c0,-3.866,3.134,-7,7,-7h6c3.866,0,7,3.134,7,7V961z" opacity="0.8"></path><text id="kity_text_177" text-rendering="geometricPrecision" x="847" y="960.5" text-anchor="middle" font-style="italic" font-size="12" fill="white" dy="4">1</text></g></g><g id="minder_node15"><g id="node_expander11" style="cursor: pointer;" display="none"><path id="kity_path_236" fill="white" stroke="gray" d="M827.5,1057.5A6,6,0,1,1,815.5,1057.5A6,6,0,1,1,827.5,1057.5"></path><path id="kity_path_237" fill="none" stroke="gray"></path></g><path id="node_outline12" fill="none" stroke="none" d="M832.5,1010.5h158a5,5,0,0,1,5,5v84a5,5,0,0,1,-5,5h-158a5,5,0,0,1,-5,-5v-84a5,5,0,0,1,5,-5z" stroke-width="3"></path><g id="node_text12" fill="black"><text id="kity_text_128" text-rendering="inherit" font-size="12" dy=".8em" y="1015.5" x="862.5">根据医院ID更新统计表:</text><text id="kity_text_129" text-rendering="inherit" font-size="12" dy=".8em" y="1033.5" x="862.5">返回false:</text><text id="kity_text_130" text-rendering="inherit" font-size="12" dy=".8em" y="1051.5" x="862.5">	&#xa0; &#xa0; &#xa0; &#xa0;执行插入操作</text><text id="kity_text_131" text-rendering="inherit" font-size="12" dy=".8em" y="1069.5" x="862.5">返回ture:</text><text id="kity_text_132" text-rendering="inherit" font-size="12" dy=".8em" y="1087.5" x="862.5">	&#xa0; &#xa0;结束</text></g><g id="node_priority5"><path id="kity_path_180" fill="#01467F" stroke="none" d="M838,1061c0,3.866,3.134,7,7,7h6c3.866,0,7,-3.134,7,-7V1055H838V1061z"></path><path id="kity_path_181" fill="#0074FF" stroke="none" d="M858,1058c0,3.866,-3.134,7,-7,7H845c-3.866,0,-7,-3.134,-7,-7V1055c0,-3.866,3.134,-7,7,-7h6c3.866,0,7,3.134,7,7V1058z" opacity="0.8"></path><text id="kity_text_182" text-rendering="geometricPrecision" x="847" y="1057.5" text-anchor="middle" font-style="italic" font-size="12" fill="white" dy="4">2</text></g></g><g id="minder_node16"><g id="node_expander15" style="cursor: pointer;"><path id="kity_path_248" fill="white" stroke="gray" d="M566.5,1279.5A6,6,0,1,1,554.5,1279.5A6,6,0,1,1,566.5,1279.5"></path><path id="kity_path_249" fill="none" stroke="gray" d="M556,1279.5L565,1279.5"></path></g><path id="node_outline16" fill="none" stroke="none" d="M571.5,1268.5h334a5,5,0,0,1,5,5v12a5,5,0,0,1,-5,5h-334a5,5,0,0,1,-5,-5v-12a5,5,0,0,1,5,-5z" stroke-width="3"></path><g id="node_text16" fill="black"><text id="kity_text_152" text-rendering="inherit" font-size="12" dy=".8em" y="1273.5" x="576.5">代码详细实现(只有在商品审核成功或商品下架时执行,基于一)</text></g></g><g id="minder_node17"><g id="node_expander13" style="cursor: pointer;" display="none"><path id="kity_path_242" fill="white" stroke="gray" d="M950.5,1190.5A6,6,0,1,1,938.5,1190.5A6,6,0,1,1,950.5,1190.5"></path><path id="kity_path_243" fill="none" stroke="gray"></path></g><path id="node_outline14" fill="none" stroke="none" d="M955.5,1134.5h687a5,5,0,0,1,5,5v102a5,5,0,0,1,-5,5h-687a5,5,0,0,1,-5,-5v-102a5,5,0,0,1,5,-5z" stroke-width="3"></path><g id="node_text14" fill="black"><text id="kity_text_136" text-rendering="inherit" font-size="12" dy=".8em" y="1139.5" x="960.5">1. 执行商品上架方法操作时</text><text id="kity_text_137" text-rendering="inherit" font-size="12" dy=".8em" y="1157.5" x="960.5">成功:&#xa0; &#xa0;统计表对应机构商品上架数+1</text><text id="kity_text_138" text-rendering="inherit" font-size="12" dy=".8em" y="1175.5" x="960.5">sql: UPDATE hosp_product_stats SET quantity_on_shelves = quantity_on_shelves +1 WHERE id = 医院ID AND is_delete = 0</text><text id="kity_text_139" text-rendering="inherit" font-size="12" dy=".8em" y="1193.5" x="960.5">2. 执行商品下架方法时</text><text id="kity_text_140" text-rendering="inherit" font-size="12" dy=".8em" y="1211.5" x="960.5">成功:&#xa0; &#xa0;统计表对应机构商品上架数-1</text><text id="kity_text_141" text-rendering="inherit" font-size="12" dy=".8em" y="1229.5" x="960.5">sql: UPDATE hosp_product_stats SET quantity_on_shelves = quantity_on_shelves -1 WHERE id = 医院ID AND is_delete = 0</text></g></g><g id="minder_node18"><g id="node_expander14" style="cursor: pointer;" display="none"><path id="kity_path_245" fill="white" stroke="gray" d="M950.5,1350.5A6,6,0,1,1,938.5,1350.5A6,6,0,1,1,950.5,1350.5"></path><path id="kity_path_246" fill="none" stroke="gray"></path></g><path id="node_outline15" fill="none" stroke="none" d="M955.5,1276.5h543a5,5,0,0,1,5,5v138a5,5,0,0,1,-5,5h-543a5,5,0,0,1,-5,-5v-138a5,5,0,0,1,5,-5z" stroke-width="3"></path><g id="node_text15" fill="black"><text id="kity_text_143" text-rendering="inherit" font-size="12" dy=".8em" y="1281.5" x="960.5">1. 执行商品上架方法操作时</text><text id="kity_text_144" text-rendering="inherit" font-size="12" dy=".8em" y="1299.5" x="960.5">成功:&#xa0; &#xa0;执行统计商品表:根据医院id,上架状态,更新到统</text><text id="kity_text_145" text-rendering="inherit" font-size="12" dy=".8em" y="1317.5" x="960.5">计表中</text><text id="kity_text_146" text-rendering="inherit" font-size="12" dy=".8em" y="1335.5" x="960.5">2. 执行商品下架方法时</text><text id="kity_text_147" text-rendering="inherit" font-size="12" dy=".8em" y="1353.5" x="960.5">成功:&#xa0; &#xa0;执行统计商品表:根据医院id,上架状态,更新到统计表中</text><text id="kity_text_148" text-rendering="inherit" font-size="12" dy=".8em" y="1371.5" x="960.5">sql:&#xa0;</text><text id="kity_text_149" text-rendering="inherit" font-size="12" dy=".8em" y="1389.5" x="960.5">SELECT count(*) FROM product WHERE hosp_id=医院ID AND status = 已上架 AND is_delete = 0;</text><text id="kity_text_150" text-rendering="inherit" font-size="12" dy=".8em" y="1407.5" x="960.5">UPDATE hosp_product_stats SET quantity_on_shelves = 上一条结果 WHERE id = 医院ID</text></g></g></g></g></svg>